<svg xmlns="http://www.w3.org/2000/svg" viewBox="0 0 980 830" width="980" height="830"><rect width="980" height="830" fill="#171A33"/><g transform="translate(40 120)"><rect x="0" y="0" width="660.0" height="640.0" rx="10" fill="#22264A"/><g opacity=".07"><line x1="0.0" y1="0" x2="0.0" y2="640.0" stroke="#F3EFE4" stroke-width="1"/><line x1="50.0" y1="0" x2="50.0" y2="640.0" stroke="#F3EFE4" stroke-width="1"/><line x1="100.0" y1="0" x2="100.0" y2="640.0" stroke="#F3EFE4" stroke-width="1"/><line x1="150.0" y1="0" x2="150.0" y2="640.0" stroke="#F3EFE4" stroke-width="1"/><line x1="200.0" y1="0" x2="200.0" y2="640.0" stroke="#F3EFE4" stroke-width="1"/><line x1="250.0" y1="0" x2="250.0" y2="640.0" stroke="#F3EFE4" stroke-width="1"/><line x1="300.0" y1="0" x2="300.0" y2="640.0" stroke="#F3EFE4" stroke-width="1"/><line x1="350.0" y1="0" x2="350.0" y2="640.0" stroke="#F3EFE4" stroke-width="1"/><line x1="400.0" y1="0" x2="400.0" y2="640.0" stroke="#F3EFE4" stroke-width="1"/><line x1="450.0" y1="0" x2="450.0" y2="640.0" stroke="#F3EFE4" stroke-width="1"/><line x1="500.0" y1="0" x2="500.0" y2="640.0" stroke="#F3EFE4" stroke-width="1"/><line x1="550.0" y1="0" x2="550.0" y2="640.0" stroke="#F3EFE4" stroke-width="1"/><line x1="600.0" y1="0" x2="600.0" y2="640.0" stroke="#F3EFE4" stroke-width="1"/><line x1="650.0" y1="0" x2="650.0" y2="640.0" stroke="#F3EFE4" stroke-width="1"/><line x1="0" y1="0.0" x2="660.0" y2="0.0" stroke="#F3EFE4" stroke-width="1"/><line x1="0" y1="50.0" x2="660.0" y2="50.0" stroke="#F3EFE4" stroke-width="1"/><line x1="0" y1="100.0" x2="660.0" y2="100.0" stroke="#F3EFE4" stroke-width="1"/><line x1="0" y1="150.0" x2="660.0" y2="150.0" stroke="#F3EFE4" stroke-width="1"/><line x1="0" y1="200.0" x2="660.0" y2="200.0" stroke="#F3EFE4" stroke-width="1"/><line x1="0" y1="250.0" x2="660.0" y2="250.0" stroke="#F3EFE4" stroke-width="1"/><line x1="0" y1="300.0" x2="660.0" y2="300.0" stroke="#F3EFE4" stroke-width="1"/><line x1="0" y1="350.0" x2="660.0" y2="350.0" stroke="#F3EFE4" stroke-width="1"/><line x1="0" y1="400.0" x2="660.0" y2="400.0" stroke="#F3EFE4" stroke-width="1"/><line x1="0" y1="450.0" x2="660.0" y2="450.0" stroke="#F3EFE4" stroke-width="1"/><line x1="0" y1="500.0" x2="660.0" y2="500.0" stroke="#F3EFE4" stroke-width="1"/><line x1="0" y1="550.0" x2="660.0" y2="550.0" stroke="#F3EFE4" stroke-width="1"/><line x1="0" y1="600.0" x2="660.0" y2="600.0" stroke="#F3EFE4" stroke-width="1"/></g><g><rect x="341.0" y="119.0" width="110.0" height="150.0" rx="4" fill="#2B3752" stroke="#5F9E83" stroke-width="2"/></g><text x="351.0" y="111.0" font-family="Barlow Semi Condensed, Avenir Next Condensed, Roboto Condensed, system-ui, sans-serif" font-size="13" font-weight="700" fill="#79D19B" text-anchor="start" letter-spacing=".12em">CRYSTAL BALLROOM</text><g><rect x="456.0" y="114.0" width="48.0" height="160.0" rx="6" fill="none" stroke="#3A3F70" stroke-width="1.5" stroke-dasharray="6 6"/></g><text x="480.0" y="199.0" font-family="Barlow Semi Condensed, Avenir Next Condensed, Roboto Condensed, system-ui, sans-serif" font-size="12" font-weight="500" fill="#6F739A" text-anchor="middle" transform="rotate(-90 480.0 194.0)">Foyer</text><g><rect x="90.0" y="446.0" width="300.0" height="140.0" rx="6" fill="none" stroke="#3A3F70" stroke-width="1.5" stroke-dasharray="6 6"/></g><text x="240.0" y="521.2" font-family="Barlow Semi Condensed, Avenir Next Condensed, Roboto Condensed, system-ui, sans-serif" font-size="15" font-weight="500" fill="#6F739A" text-anchor="middle" >Main Lobby</text><g><rect x="556.0" y="134.0" width="88.0" height="120.0" rx="6" fill="none" stroke="#3A3F70" stroke-width="1.5" stroke-dasharray="6 6"/></g><text x="600.0" y="199.2" font-family="Barlow Semi Condensed, Avenir Next Condensed, Roboto Condensed, system-ui, sans-serif" font-size="15" font-weight="500" fill="#6F739A" text-anchor="middle" >Patio</text><g><rect x="341.0" y="119.0" width="52.0" height="56.0" rx="0" fill="none" stroke="#5F9E83" stroke-width="1.3" stroke-dasharray="6 4" opacity=".85"/></g><g><text x="367.0" y="157.0" font-family="Barlow Semi Condensed, Avenir Next Condensed, Roboto Condensed, system-ui, sans-serif" font-size="30" font-weight="700" fill="#79D19B" text-anchor="middle" >A</text><text x="367.0" y="175.0" font-family="Barlow Semi Condensed, Avenir Next Condensed, Roboto Condensed, system-ui, sans-serif" font-size="10" font-weight="500" fill="#A5A9C9" text-anchor="middle" >26 × 28 ft</text></g><g><rect x="393.0" y="119.0" width="58.0" height="56.0" rx="0" fill="none" stroke="#5F9E83" stroke-width="1.3" stroke-dasharray="6 4" opacity=".85"/></g><g><text x="422.0" y="157.0" font-family="Barlow Semi Condensed, Avenir Next Condensed, Roboto Condensed, system-ui, sans-serif" font-size="30" font-weight="700" fill="#79D19B" text-anchor="middle" >F</text><text x="422.0" y="175.0" font-family="Barlow Semi Condensed, Avenir Next Condensed, Roboto Condensed, system-ui, sans-serif" font-size="10" font-weight="500" fill="#A5A9C9" text-anchor="middle" >29 × 28 ft</text></g><g><rect x="341.0" y="175.0" width="52.0" height="38.0" rx="0" fill="none" stroke="#5F9E83" stroke-width="1.3" stroke-dasharray="6 4" opacity=".85"/></g><g><text x="367.0" y="204.0" font-family="Barlow Semi Condensed, Avenir Next Condensed, Roboto Condensed, system-ui, sans-serif" font-size="30" font-weight="700" fill="#79D19B" text-anchor="middle" >B</text><text x="367.0" y="222.0" font-family="Barlow Semi Condensed, Avenir Next Condensed, Roboto Condensed, system-ui, sans-serif" font-size="10" font-weight="500" fill="#A5A9C9" text-anchor="middle" >26 × 19 ft</text></g><g><rect x="393.0" y="175.0" width="58.0" height="38.0" rx="0" fill="none" stroke="#5F9E83" stroke-width="1.3" stroke-dasharray="6 4" opacity=".85"/></g><g><text x="422.0" y="204.0" font-family="Barlow Semi Condensed, Avenir Next Condensed, Roboto Condensed, system-ui, sans-serif" font-size="30" font-weight="700" fill="#79D19B" text-anchor="middle" >E</text><text x="422.0" y="222.0" font-family="Barlow Semi Condensed, Avenir Next Condensed, Roboto Condensed, system-ui, sans-serif" font-size="10" font-weight="500" fill="#A5A9C9" text-anchor="middle" >29 × 19 ft</text></g><g><rect x="341.0" y="213.0" width="52.0" height="56.0" rx="0" fill="none" stroke="#5F9E83" stroke-width="1.3" stroke-dasharray="6 4" opacity=".85"/></g><g><text x="367.0" y="251.0" font-family="Barlow Semi Condensed, Avenir Next Condensed, Roboto Condensed, system-ui, sans-serif" font-size="30" font-weight="700" fill="#79D19B" text-anchor="middle" >C</text><text x="367.0" y="269.0" font-family="Barlow Semi Condensed, Avenir Next Condensed, Roboto Condensed, system-ui, sans-serif" font-size="10" font-weight="500" fill="#A5A9C9" text-anchor="middle" >26 × 28 ft</text></g><g><rect x="393.0" y="213.0" width="58.0" height="56.0" rx="0" fill="none" stroke="#5F9E83" stroke-width="1.3" stroke-dasharray="6 4" opacity=".85"/></g><g><text x="422.0" y="251.0" font-family="Barlow Semi Condensed, Avenir Next Condensed, Roboto Condensed, system-ui, sans-serif" font-size="30" font-weight="700" fill="#79D19B" text-anchor="middle" >D</text><text x="422.0" y="269.0" font-family="Barlow Semi Condensed, Avenir Next Condensed, Roboto Condensed, system-ui, sans-serif" font-size="10" font-weight="500" fill="#A5A9C9" text-anchor="middle" >29 × 28 ft</text></g><g><rect x="341.0" y="119.0" width="110.0" height="150.0" rx="4" fill="none" stroke="#5F9E83" stroke-width="2"/></g><g transform="translate(424.0 524.0)"><path d="M-14 9 L0 -5 M-6 9 L8 -5 M2 9 L16 -5" fill="none" stroke="#F3C64B" stroke-width="2.2" stroke-linecap="round"/><text x="0.0" y="24.0" font-family="Barlow Semi Condensed, Avenir Next Condensed, Roboto Condensed, system-ui, sans-serif" font-size="11" font-weight="600" fill="#F3C64B" text-anchor="middle" >Escalators down to the Galleria</text></g><g transform="translate(280.0 404.0)"><path d="M-14 9 L0 -5 M-6 9 L8 -5 M2 9 L16 -5" fill="none" stroke="#F3C64B" stroke-width="2.2" stroke-linecap="round"/><text x="0.0" y="24.0" font-family="Barlow Semi Condensed, Avenir Next Condensed, Roboto Condensed, system-ui, sans-serif" font-size="11" font-weight="600" fill="#F3C64B" text-anchor="middle" >Escalators up to 2nd</text></g><g transform="translate(260.0 330.0)"><rect x="-10" y="-7" width="20" height="14" rx="2" fill="none" stroke="#F3C64B" stroke-width="2"/><path d="M-3 -3 L-3 3 M3 -3 L3 3" stroke="#F3C64B" stroke-width="2" stroke-linecap="round"/><text x="0.0" y="24.0" font-family="Barlow Semi Condensed, Avenir Next Condensed, Roboto Condensed, system-ui, sans-serif" font-size="11" font-weight="600" fill="#F3C64B" text-anchor="middle" >Elevators</text></g><g transform="translate(504.0 312.0)"><rect x="-10" y="-7" width="20" height="14" rx="2" fill="none" stroke="#F3C64B" stroke-width="2"/><path d="M-3 -3 L-3 3 M3 -3 L3 3" stroke="#F3C64B" stroke-width="2" stroke-linecap="round"/><text x="0.0" y="24.0" font-family="Barlow Semi Condensed, Avenir Next Condensed, Roboto Condensed, system-ui, sans-serif" font-size="11" font-weight="600" fill="#F3C64B" text-anchor="middle" >Accessible lift</text></g><g transform="translate(330.0 624.0)"><path d="M-12 -8 V8 H12 V-8 M0 -8 V8 M-12 8 H12" fill="none" stroke="#F3C64B" stroke-width="2" stroke-linejoin="round"/><text x="0.0" y="24.0" font-family="Barlow Semi Condensed, Avenir Next Condensed, Roboto Condensed, system-ui, sans-serif" font-size="11" font-weight="600" fill="#F3C64B" text-anchor="middle" >John Portman entrance</text></g><text x="330.0" y="-8.0" font-family="Barlow Semi Condensed, Avenir Next Condensed, Roboto Condensed, system-ui, sans-serif" font-size="11" font-weight="600" fill="#6F739A" text-anchor="middle" letter-spacing=".08em">Baker Street NE</text><text x="330.0" y="658.0" font-family="Barlow Semi Condensed, Avenir Next Condensed, Roboto Condensed, system-ui, sans-serif" font-size="11" font-weight="600" fill="#6F739A" text-anchor="middle" letter-spacing=".08em">John Portman Blvd NE</text><text x="-10.0" y="320.0" font-family="Barlow Semi Condensed, Avenir Next Condensed, Roboto Condensed, system-ui, sans-serif" font-size="11" font-weight="600" fill="#6F739A" text-anchor="middle" letter-spacing=".08em" transform="rotate(-90 -10 320.0)">Courtland Street</text></g><text x="40.0" y="42.0" font-family="Barlow Semi Condensed, Avenir Next Condensed, Roboto Condensed, system-ui, sans-serif" font-size="28" font-weight="700" fill="#F3EFE4" text-anchor="start" >Hilton Atlanta · 1st Floor</text><text x="40.0" y="64.0" font-family="Barlow Semi Condensed, Avenir Next Condensed, Roboto Condensed, system-ui, sans-serif" font-size="13" font-weight="500" fill="#A5A9C9" text-anchor="start" >Sizes from the hotel's tables at 2 px per foot; placement and orientation from Dragon Con's own map. North is up.</text><text x="40.0" y="82.0" font-family="Barlow Semi Condensed, Avenir Next Condensed, Roboto Condensed, system-ui, sans-serif" font-size="13" font-weight="500" fill="#A5A9C9" text-anchor="start" >the street level: Main Lobby, Crystal Ballroom, escalators down to the Galleria  ·  escalators-up position inferred from the 2nd floor's escalators</text><g transform="translate(40 800)"><rect x="0" y="0" width="100" height="6" fill="#F3EFE4"/><rect x="100" y="0" width="100" height="6" fill="#A5A9C9"/><text x="0.0" y="20.0" font-family="Barlow Semi Condensed, Avenir Next Condensed, Roboto Condensed, system-ui, sans-serif" font-size="11" font-weight="600" fill="#A5A9C9" text-anchor="middle" >0 ft</text><text x="100.0" y="20.0" font-family="Barlow Semi Condensed, Avenir Next Condensed, Roboto Condensed, system-ui, sans-serif" font-size="11" font-weight="600" fill="#A5A9C9" text-anchor="middle" >50 ft</text><text x="200.0" y="20.0" font-family="Barlow Semi Condensed, Avenir Next Condensed, Roboto Condensed, system-ui, sans-serif" font-size="11" font-weight="600" fill="#A5A9C9" text-anchor="middle" >100 ft</text></g></svg>